<svg width="160" height="177" viewBox="0 0 160 177" fill="none" xmlns="http://www.w3.org/2000/svg">
<path d="M84.0444 2.06992L80 0L75.9556 2.06992C65.7836 7.2682 56.5105 14.0615 48.4889 22.1916C60.1577 28.266 70.7926 36.1454 80 45.5382C89.2047 36.1461 99.8365 28.2668 111.502 22.1916C103.483 14.0625 94.2131 7.26926 84.0444 2.06992ZM68.4356 59.1481C52.9339 42.8157 32.6489 31.8175 10.4978 27.7351L0 25.7984V97.0462C5.29206e-05 113.092 4.82937 128.767 13.8603 142.034C22.8913 155.301 35.7063 165.546 50.64 171.439C46.5229 158.897 44.4315 145.78 44.4444 132.581C44.4444 105.113 53.3422 79.7228 68.4356 59.1481ZM160 25.8073L149.511 27.7351C99.84 36.8498 62.2222 80.3181 62.2222 132.581C62.2222 146.227 64.8 159.295 69.4845 171.314L71.6178 176.778C74.4089 176.867 77.2089 177 80 177C101.217 177 121.566 168.576 136.569 153.582C151.571 138.588 160 118.251 160 97.0462V25.8073Z" fill="white"/>
</svg>
