<svg width="17" height="12" viewBox="0 0 17 12" fill="none" xmlns="http://www.w3.org/2000/svg">
<path d="M4.44014 0.2C4.5452 0.121207 4.66475 0.063878 4.79196 0.0312864C4.91917 -0.00130515 5.05156 -0.00852122 5.18156 0.0100505C5.31156 0.0286222 5.43663 0.072618 5.54963 0.139526C5.66263 0.206433 5.76135 0.294943 5.84014 0.4C5.91893 0.505058 5.97626 0.624606 6.00885 0.751819C6.04145 0.879033 6.04866 1.01142 6.03009 1.14142C6.01152 1.27142 5.96752 1.39649 5.90061 1.50949C5.83371 1.62249 5.7452 1.72121 5.64014 1.8C4.07614 2.973 3.18014 4.114 2.66714 5.11C3.37151 4.92868 4.11487 4.97131 4.7939 5.23195C5.47293 5.4926 6.05388 5.95831 6.45602 6.56436C6.85816 7.17041 7.06151 7.88669 7.03779 8.61364C7.01407 9.34058 6.76447 10.0421 6.32368 10.6206C5.88289 11.1992 5.27281 11.626 4.57824 11.8419C3.88366 12.0577 3.13911 12.0518 2.44805 11.8249C1.757 11.5981 1.15378 11.1616 0.722247 10.5761C0.290711 9.99061 0.0522962 9.28523 0.0401398 8.558C-0.0865747 7.32995 0.0877854 6.08953 0.54814 4.944C1.14514 3.438 2.31214 1.796 4.44014 0.2ZM13.4401 0.2C13.5452 0.121207 13.6647 0.063878 13.792 0.0312864C13.9192 -0.00130515 14.0516 -0.00852122 14.1816 0.0100505C14.3116 0.0286222 14.4366 0.072618 14.5496 0.139526C14.6626 0.206433 14.7613 0.294943 14.8401 0.4C14.9189 0.505058 14.9763 0.624606 15.0089 0.751819C15.0414 0.879033 15.0487 1.01142 15.0301 1.14142C15.0115 1.27142 14.9675 1.39649 14.9006 1.50949C14.8337 1.62249 14.7452 1.72121 14.6401 1.8C13.0761 2.973 12.1801 4.114 11.6671 5.11C12.3715 4.92868 13.1149 4.97131 13.7939 5.23195C14.4729 5.4926 15.0539 5.95831 15.456 6.56436C15.8582 7.17041 16.0615 7.88669 16.0378 8.61364C16.0141 9.34058 15.7645 10.0421 15.3237 10.6206C14.8829 11.1992 14.2728 11.626 13.5782 11.8419C12.8837 12.0577 12.1391 12.0518 11.4481 11.8249C10.757 11.5981 10.1538 11.1616 9.72225 10.5761C9.29071 9.99061 9.0523 9.28523 9.04014 8.558C8.91343 7.32995 9.08779 6.08953 9.54814 4.944C10.1461 3.438 11.3121 1.796 13.4401 0.2Z" fill="url(#paint0_linear_2220_43)"/>
<defs>
<linearGradient id="paint0_linear_2220_43" x1="8.01983" y1="0" x2="8.01983" y2="11.9995" gradientUnits="userSpaceOnUse">
<stop stop-color="#A259FF"/>
<stop offset="1" stop-color="#594AEB"/>
</linearGradient>
</defs>
</svg>
