<svg xmlns="http://www.w3.org/2000/svg" width="1200" height="675" viewBox="0 0 1200 675" fill="none">
  <defs>
    <linearGradient id="bg" x1="0" y1="0" x2="1200" y2="675" gradientUnits="userSpaceOnUse">
      <stop stop-color="#25213F"/>
      <stop offset="1" stop-color="#181828"/>
    </linearGradient>
    <linearGradient id="accent" x1="420" y1="180" x2="780" y2="495" gradientUnits="userSpaceOnUse">
      <stop stop-color="#594AEB"/>
      <stop offset="1" stop-color="#9F72FF"/>
    </linearGradient>
    <filter id="glow" x="300" y="120" width="600" height="435" filterUnits="userSpaceOnUse" color-interpolation-filters="sRGB">
      <feFlood flood-opacity="0" result="BackgroundImageFix"/>
      <feBlend in="SourceGraphic" in2="BackgroundImageFix" result="shape"/>
      <feGaussianBlur stdDeviation="24" result="effect1_foregroundBlur"/>
    </filter>
  </defs>
  <rect width="1200" height="675" fill="url(#bg)"/>
  <rect x="72" y="72" width="1056" height="531" rx="18" stroke="#9F72FF" stroke-opacity="0.18" stroke-width="2"/>
  <g filter="url(#glow)" opacity="0.45">
    <rect x="420" y="180" width="360" height="315" rx="20" fill="url(#accent)"/>
  </g>
  <rect x="420" y="180" width="360" height="315" rx="20" fill="url(#accent)" fill-opacity="0.12" stroke="url(#accent)" stroke-width="2"/>
  <path d="M510 285H690M510 330H660M510 375H690" stroke="#9F72FF" stroke-width="10" stroke-linecap="round" stroke-opacity="0.55"/>
  <circle cx="540" cy="255" r="18" fill="#9F72FF" fill-opacity="0.7"/>
  <path d="M575 420L620 360L665 395L715 315L760 420H575Z" fill="url(#accent)" fill-opacity="0.85"/>
  <path d="M575 420H760V435H575V420Z" fill="#594AEB" fill-opacity="0.5"/>
</svg>
